<svg width="24" height="24" viewBox="0 0 24 24" fill="none" xmlns="http://www.w3.org/2000/svg">
<path fill-rule="evenodd" clip-rule="evenodd" d="M12 8.25C9.92893 8.25 8.25 9.92893 8.25 12C8.25 14.0711 9.92893 15.75 12 15.75C14.0711 15.75 15.75 14.0711 15.75 12C15.75 9.92893 14.0711 8.25 12 8.25ZM9.75 12C9.75 10.7574 10.7574 9.75 12 9.75C13.2426 9.75 14.25 10.7574 14.25 12C14.25 13.2426 13.2426 14.25 12 14.25C10.7574 14.25 9.75 13.2426 9.75 12Z" fill="#0D0B4E"/>
<path fill-rule="evenodd" clip-rule="evenodd" d="M21.7549 9.89403C17.1351 2.36865 6.86488 2.36866 2.24513 9.89403L2.24376 9.89626C2.03019 10.2442 1.88492 10.4808 1.74373 10.9807C1.66042 11.2756 1.63266 11.6671 1.63266 12C1.63266 12.3329 1.66042 12.7244 1.74373 13.0193C1.88492 13.5192 2.03019 13.7559 2.24376 14.1038L2.24513 14.106C6.86488 21.6314 17.1351 21.6314 21.7549 14.106L21.7562 14.1038C21.9698 13.7559 22.1151 13.5192 22.2563 13.0193C22.3396 12.7244 22.3673 12.3329 22.3673 12C22.3673 11.6671 22.3396 11.2756 22.2563 10.9807C22.1151 10.4808 21.9698 10.2442 21.7563 9.89628L21.7549 9.89403ZM3.52347 10.6788C7.55778 4.10707 16.4422 4.10707 20.4765 10.6788C20.67 10.994 20.7283 11.0895 20.8128 11.3884C20.8399 11.4844 20.8673 11.713 20.8673 12C20.8673 12.287 20.8399 12.5156 20.8128 12.6116C20.7283 12.9105 20.67 13.006 20.4765 13.3212C16.4422 19.8929 7.55778 19.8929 3.52347 13.3212C3.32998 13.006 3.27166 12.9105 3.18725 12.6116C3.16012 12.5156 3.13266 12.287 3.13266 12C3.13266 11.713 3.16012 11.4844 3.18725 11.3884C3.27166 11.0895 3.32998 10.994 3.52347 10.6788Z" fill="#0D0B4E"/>
</svg>
